[Header]
FileType HTR
DataType HTRS
FileVersion 1
NumSegments 22
NumFrames 4
DataFrameRate 24
EulerRotationOrder ZYX
CalibrationUnits mm
RotationUnits Degrees
GlobalAxisofGravity Y
BoneLengthAxis Y
ScaleFactor 1.0
[SegmentNames&Hierarchy]
reference	GLOBAL
Hips	reference
Spine	Hips
Spine1	Spine
Neck	Spine1
Head	Neck
LeftShoulder	Spine1
LeftArm	LeftShoulder
LeftForeArm	LeftArm
LeftHand	LeftForeArm
RightShoulder	Spine1
RightArm	RightShoulder
RightForeArm	RightArm
RightHand	RightForeArm
LeftUpLeg	Hips
LeftLeg	LeftUpLeg
LeftFoot	LeftLeg
LeftToeBase	LeftFoot
RightUpLeg	Hips
RightLeg	RightUpLeg
RightFoot	RightLeg
RightToeBase	RightFoot
[BasePosition]
reference	0	0	0	0	0	0	1
Hips	0	0	0	0	0	0	1
Spine	0	0	0	0	-0	90	1
Spine1	0	0	0	0	0	0	1
Neck	0	0	0	-7.352327771	-7.352327771	90	1
Head	0	0	0	0	-0	90	1
LeftShoulder	0	0	0	0	0	0	1
LeftArm	0	0	0	0	0	0	1
LeftForeArm	0	0	0	0	0	0	1
LeftHand	0	0	0	0	0	0	1
RightShoulder	0	0	0	0	-0	180	1
RightArm	0	0	0	0	-0	180	1
RightForeArm	0	0	0	0	-0	180	1
RightHand	0	0	0	0	-0	180	1
LeftUpLeg	0	0	0	0	-0	-90	1
LeftLeg	0	0	0	0	-0	-90	1
LeftFoot	0	0	0	66.57146043	-66.57146043	-90	1
LeftToeBase	0	0	0	0	-90	0	1
RightUpLeg	0	0	0	0	-0	-90	1
RightLeg	0	0	0	0	-0	-90	1
RightFoot	0	0	0	66.57146043	-66.57146043	-90	1
RightToeBase	0	0	0	0	-90	0	1
[reference]
64	0	0	0	0	-0	0	1.0
65	0	0	0	0	-0	0	1.0
66	0	0	0	0	-0	0	1.0
67	0	0	0	0	-0	0	1.0
[Hips]
64	4.530858517	8.119987488	1.520589352	4.827265739	-136.1963806	-3.374141693	1.0
65	4.494128227	8.249655724	1.54231739	6.122092247	-137.7503967	-4.053137302	1.0
66	4.409301758	8.378875732	1.565177321	7.608582497	-139.7090454	-4.705661297	1.0
67	4.297430038	8.396883965	1.587445617	8.330307007	-141.4198914	-4.963607788	1.0
[Spine]
64	0	0.7457100153	0	-3.334121227	-1.366913199	-90.64334106	1.0
65	0	0.7457100153	0	-3.780478954	-0.919462502	-90.59246826	1.0
66	0	0.7457100153	0	-4.433351517	-0.4813523591	-90.40181732	1.0
67	0	0.7457100153	0	-4.532402039	-0.3147341013	-90.34843445	1.0
[Spine1]
64	0	2.140589952	0	4.991920471	-0.6176565886	3.689022064	1.0
65	0	2.140589952	0	3.881774426	-0.4333290458	3.912412167	1.0
66	0	2.140589952	0	2.768853426	-0.2539763451	4.153864861	1.0
67	0	2.140589952	0	1.793157578	-0.1874931455	4.668002129	1.0
[Neck]
64	0	2.32246995	0	-17.21471786	17.88941574	-96.58644867	1.0
65	0	2.32246995	0	-16.63608551	18.21090126	-97.030159	1.0
66	0	2.32246995	0	-16.4677124	18.78327942	-97.91862488	1.0
67	0	2.32246995	0	-16.25537491	19.47943497	-98.57650757	1.0
[Head]
64	0	1.409579992	0.1818799973	-3.773690939	11.93224525	-94.0352478	1.0
65	0	1.409579992	0.1818799973	-3.510485411	12.3165226	-94.46305847	1.0
66	0	1.409579992	0.1818799973	-2.808204651	13.00677586	-94.42961121	1.0
67	0	1.409579992	0.1818799973	-2.509990931	13.82047367	-94.83201599	1.0
[LeftShoulder]
64	0.3668199778	1.946700096	-0.02662999928	-18.35596466	-13.12311554	1.00590229	1.0
65	0.3668199778	1.946700096	-0.02662999928	-18.02972794	-12.9207058	1.409343839	1.0
66	0.3668199778	1.946700096	-0.02662999928	-17.91268158	-12.67716408	1.683612585	1.0
67	0.3668199778	1.946700096	-0.02662999928	-17.55452156	-12.42554379	1.952189684	1.0
[LeftArm]
64	1.140689969	0	0	37.30801392	-4.873660088	-63.50531769	1.0
65	1.140689969	0	0	36.97257996	-5.032316208	-62.82094193	1.0
66	1.140689969	0	0	36.31485367	-4.69849205	-61.8796463	1.0
67	1.140689969	0	0	35.11503601	-4.690493584	-60.72014999	1.0
[LeftForeArm]
64	2.749800205	0	0	63.32643509	-138.3199158	-26.04478455	1.0
65	2.749800205	0	0	63.09272766	-137.2357483	-26.64117241	1.0
66	2.749800205	0	0	63.90554047	-136.8224335	-27.51956367	1.0
67	2.749800205	0	0	64.39078522	-136.2915344	-28.5634613	1.0
[LeftHand]
64	2.295179844	0	0	-2.535603523	-18.98866463	19.51582718	1.0
65	2.295179844	0	0	-2.359577179	-18.68084908	18.82252502	1.0
66	2.295179844	0	0	-2.569300413	-18.5955925	17.98091316	1.0
67	2.295179844	0	0	-3.367454767	-18.22784424	18.21573639	1.0
[RightShoulder]
64	-0.3601199985	1.946700096	-0.02662999928	-7.738898277	3.901849985	175.2064514	1.0
65	-0.3601199985	1.946700096	-0.02662999928	-7.703547955	3.638689995	174.9657593	1.0
66	-0.3601199985	1.946700096	-0.02662999928	-7.65673399	3.741257191	174.6686859	1.0
67	-0.3601199985	1.946700096	-0.02662999928	-7.565899849	3.809792757	174.4821014	1.0
[RightArm]
64	-1.140689969	0	0	57.61209106	5.877684116	-104.1726837	1.0
65	-1.140689969	0	0	57.14045334	5.022835732	-104.1320267	1.0
66	-1.140689969	0	0	56.9678688	4.892631531	-104.3307953	1.0
67	-1.140689969	0	0	56.62404633	5.32225132	-104.7950592	1.0
[RightForeArm]
64	-2.749800205	0	0	-100.6784897	44.01165771	35.17958069	1.0
65	-2.749800205	0	0	-101.3533554	44.08822632	34.89443207	1.0
66	-2.749800205	0	0	-101.6682205	43.75950623	34.60422134	1.0
67	-2.749800205	0	0	-102.562088	43.81908035	33.96391296	1.0
[RightHand]
64	-2.295179844	0	0	-0.442663312	16.81114197	156.372406	1.0
65	-2.295179844	0	0	-0.5597836375	16.78463554	156.1333923	1.0
66	-2.295179844	0	0	-0.8229503036	16.58611298	155.9702301	1.0
67	-2.295179844	0	0	-0.5145222545	16.46020889	155.923233	1.0
[LeftUpLeg]
64	0.9094099998	0	0	-34.68817139	6.599553108	105.7822418	1.0
65	0.9094099998	0	0	-32.82686996	8.008209229	104.2029953	1.0
66	0.9094099998	0	0	-30.25963783	8.028774261	103.2879791	1.0
67	0.9094099998	0	0	-27.37012863	6.390298367	103.1982269	1.0
[LeftLeg]
64	0	-4.498080254	0	51.61496735	-1.058883786	58.14569855	1.0
65	0	-4.498080254	0	48.16614532	-1.160191417	62.28024292	1.0
66	0	-4.498080254	0	42.86919403	-1.19553864	65.56678772	1.0
67	0	-4.498080254	0	37.62249756	-1.562418699	67.55047607	1.0
[LeftFoot]
64	0	-3.729400158	0	-24.34853935	118.8948059	26.36768341	1.0
65	0	-3.729400158	0	-26.70832825	117.7081833	23.79716492	1.0
66	0	-3.729400158	0	-25.63541794	114.588501	23.62726974	1.0
67	0	-3.729400158	0	-24.34612656	111.2771835	23.61394119	1.0
[LeftToeBase]
64	0	-0.5911099911	1.364109993	0	0	0	1.0
65	0	-0.5911099911	1.364109993	0	0	0	1.0
66	0	-0.5911099911	1.364109993	0	0	0	1.0
67	0	-0.5911099911	1.364109993	0	0	0	1.0
[RightUpLeg]
64	-0.9094099998	0	0	-5.229273319	-16.24316788	87.41945648	1.0
65	-0.9094099998	0	0	-5.013994694	-16.02745819	85.90984344	1.0
66	-0.9094099998	0	0	-5.075100899	-15.54912663	84.09049988	1.0
67	-0.9094099998	0	0	-4.362425804	-15.13885689	82.66170502	1.0
[RightLeg]
64	0	-4.498080254	0	39.23963928	1.818564177	81.12505341	1.0
65	0	-4.498080254	0	36.60025787	4.816598415	83.85348511	1.0
66	0	-4.498080254	0	33.72449112	4.687921047	84.9881134	1.0
67	0	-4.498080254	0	30.27555466	0.6097971201	83.34959412	1.0
[RightFoot]
64	0	-3.729400158	0	42.81571198	53.71847916	107.8757324	1.0
65	0	-3.729400158	0	44.35678864	53.11116409	105.5629959	1.0
66	0	-3.729400158	0	49.45239258	52.39968491	106.6796265	1.0
67	0	-3.729400158	0	59.72874451	52.00935364	113.531044	1.0
[RightToeBase]
64	0	-0.5911099911	1.364109993	0	0	0	1.0
65	0	-0.5911099911	1.364109993	0	0	0	1.0
66	0	-0.5911099911	1.364109993	0	0	0	1.0
67	0	-0.5911099911	1.364109993	0	0	0	1.0
[EndOfFile]
